<?xml version="1.0" encoding="utf-8"?>
<!-- Generator: Adobe Illustrator 20.1.0, SVG Export Plug-In . SVG Version: 6.00 Build 0)  -->
<svg version="1.1" id="Layer_1" xmlns="http://www.w3.org/2000/svg" xmlns:xlink="http://www.w3.org/1999/xlink" x="0px" y="0px"
	 viewBox="0 0 285 61" style="enable-background:new 0 0 285 61;" xml:space="preserve">
<path style="fill:#FFFFFF;" d="M78.8,30c0-5.1,4-9.2,9.1-9.2S97,24.9,97,30s-4.1,9.1-9.1,9.1S78.8,35.1,78.8,30z M81.8,30
	c0,3.5,2.5,6.4,6.2,6.4s6.2-2.9,6.2-6.4s-2.5-6.4-6.2-6.4S81.8,26.5,81.8,30z"/>
<path style="fill:#FFFFFF;" d="M104.1,23.4L104.1,23.4c1.3-1.7,2.9-2.6,5-2.6c4.8,0,5.9,3.5,5.9,7.5v10.3h-3v-9.8
	c0-2.8-0.2-5.3-3.7-5.3c-4.1,0-4.3,3.8-4.3,6.9v8.2h-3V21.2h3v2.2H104.1z"/>
<path style="fill:#FFFFFF;" d="M122.1,30.6c0,3.2,2.3,5.8,5.7,5.8c2.5,0,4.1-1.5,5.3-3.6l2.5,1.4c-1.7,3.1-4.5,4.9-8,4.9
	c-5.2,0-8.5-4-8.5-8.9c0-5.1,3-9.4,8.4-9.4c5.6,0,8.5,4.6,8.2,9.8L122.1,30.6L122.1,30.6z M132.7,28.1c-0.4-2.5-2.5-4.5-5.1-4.5
	s-4.9,2-5.3,4.5H132.7z"/>
<path style="fill:#FFFFFF;" d="M219.5,38.7h-3V24h-1.6v-2.7h1.6v-6.9c0-1.4,0-3.3,0.8-4.5c1-1.6,2.7-2.2,4.5-2.2
	c0.7,0,1.4,0.1,2.1,0.4v3c-0.7-0.2-1.3-0.4-2-0.4c-2.4,0-2.4,1.7-2.4,4.8v5.9h4.4v2.7h-4.4V38.7z"/>
<path style="fill:#FFFFFF;" d="M224.9,30c0-5.1,4-9.2,9.1-9.2s9.1,4.1,9.1,9.2s-4.1,9.1-9.1,9.1C229,39.2,224.9,35.1,224.9,30z
	 M227.8,30c0,3.5,2.5,6.4,6.2,6.4s6.2-2.9,6.2-6.4s-2.5-6.4-6.2-6.4C230.4,23.6,227.8,26.5,227.8,30z"/>
<path style="fill:#FFFFFF;" d="M249.9,31c0,2.9,0.3,5.4,3.9,5.4s3.9-2.5,3.9-5.4v-9.7h3v10c0,4.6-1.7,7.8-6.9,7.8s-6.9-3.2-6.9-7.8
	v-10h3V31z"/>
<path style="fill:#FFFFFF;" d="M268.9,23.2L268.9,23.2c1.1-1.4,2-2.4,3.9-2.4c1,0,1.8,0.3,2.7,0.8l-1.4,2.7c-0.6-0.4-1-0.8-1.8-0.8
	c-3.3,0-3.4,4.2-3.4,6.4v8.7h-3V21.2h3L268.9,23.2L268.9,23.2z"/>
<path style="fill:#FFFFFF;" d="M14.8,39H12c-0.5,0-1-0.5-1-1V16.5c0-0.5,0.5-1,1-1h2.8c0.6,0,1,0.5,1,1V38
	C15.8,38.6,15.3,39,14.8,39z"/>
<path style="fill:#FFFFFF;" d="M34.1,39h-2.8c-0.6,0-1-0.5-1-1V16.5c0-0.5,0.4-1,1-1h2.8c0.6,0,1,0.5,1,1V38
	C35.1,38.6,34.6,39,34.1,39z"/>
<path style="fill:#FFFFFF;" d="M43.8,39H41c-0.5,0-1-0.5-1-1V16.5c0-0.5,0.5-1,1-1h2.8c0.6,0,1,0.5,1,1V38
	C44.8,38.6,44.4,39,43.8,39z"/>
<path style="fill:#FFFFFF;" d="M53.6,39h-2.8c-0.5,0-1-0.5-1-1V16.5c0-0.5,0.5-1,1-1h2.8c0.5,0,1,0.5,1,1V38
	C54.6,38.6,54.1,39,53.6,39z"/>
<path style="fill:#FFFFFF;" d="M63.3,39h-2.8c-0.6,0-1-0.5-1-1V16.5c0-0.5,0.4-1,1-1h2.8c0.5,0,1,0.5,1,1V38
	C64.3,38.6,63.9,39,63.3,39z"/>
<path style="fill:#4DA5B8;" d="M24.4,29.7h-2.8c-0.6,0-1-0.4-1-1v-2.8c0-0.5,0.4-1,1-1h2.8c0.5,0,1,0.5,1,1v2.8
	C25.4,29.3,25,29.7,24.4,29.7z"/>
<path style="fill:#4DA5B8;" d="M141.8,24.7L141.8,24.7c1.3-2.2,4.1-3.4,6.6-3.4c5.2,0,8.4,4.1,8.4,9.1s-3.2,8.8-8.4,8.8
	c-2.6,0-5.2-1.1-6.6-3.3h-0.1v12.9H140V21.7h1.7v3H141.8z M141.6,30.6c0,4,2.7,7,6.8,7c4,0,6.7-3.4,6.7-7.2c0-3.9-2.5-7.5-6.7-7.5
	C144,22.9,141.6,26.5,141.6,30.6z"/>
<path style="fill:#4DA5B8;" d="M177,30.2c0,5.1-4,8.9-9,8.9c-4.9,0-8.9-4-8.9-8.9s3.9-8.9,8.9-8.9C173,21.3,177,25.2,177,30.2z
	 M160.8,30.3c0,3.9,3.1,7.3,7.1,7.3c4.2,0,7.4-3.2,7.4-7.3c0-4.2-3.2-7.4-7.4-7.4C163.8,22.9,160.8,26.3,160.8,30.3z"/>
<path style="fill:#4DA5B8;" d="M184,16c0,0.9-0.7,1.5-1.5,1.5S181,16.8,181,16s0.7-1.5,1.5-1.5S184,15.2,184,16z M183.3,38.8h-1.7
	V21.7h1.7V38.8z"/>
<path style="fill:#4DA5B8;" d="M191.3,24.3L191.3,24.3c1.1-1.9,2.9-3,5.1-3c4.4,0,5.6,2.7,5.6,7.1v10.3h-1.7V28.4
	c0-3.1-0.4-5.6-4.1-5.6c-4.3,0-5,4-5,7.5v8.4h-1.7V21.6h1.7L191.3,24.3L191.3,24.3z"/>
<path style="fill:#4DA5B8;" d="M209.6,38.8h-1.7V23.3H206v-1.6h1.9v-6.1h1.7v6.1h3v1.6h-3V38.8z"/>
</svg>
